<?xml version="1.0" standalone="no"?>
<!DOCTYPE svg PUBLIC "-//W3C//DTD SVG 20010904//EN"
 "http://www.w3.org/TR/2001/REC-SVG-20010904/DTD/svg10.dtd">
<svg version="1.0" xmlns="http://www.w3.org/2000/svg"
 width="862.000000pt" height="1280.000000pt" viewBox="0 0 862.000000 1280.000000"
 preserveAspectRatio="xMidYMid meet">
<metadata>
Created by potrace 1.15, written by Peter Selinger 2001-2017
</metadata>
<g transform="translate(0.000000,1280.000000) scale(0.100000,-0.100000)"
fill="#000000" stroke="none">
<path d="M4666 12778 c-20 -29 -20 -91 0 -130 69 -134 -157 -152 -784 -63
-269 39 -285 40 -330 24 -43 -15 -56 -62 -42 -155 5 -38 10 -72 10 -76 0 -3
12 -20 26 -37 30 -36 68 -40 147 -16 98 30 382 58 797 80 425 23 501 37 508
97 5 39 -43 122 -98 170 -47 42 -186 128 -207 128 -6 0 -19 -10 -27 -22z"/>
<path d="M3235 12505 c-76 -20 -132 -44 -355 -150 -374 -178 -533 -237 -696
-257 -70 -9 -102 -9 -124 -1 -37 14 -45 2 -25 -36 28 -55 20 -87 -36 -146 -38
-40 -80 -69 -170 -115 -136 -71 -206 -126 -196 -154 6 -16 14 -17 50 -12 43 7
65 16 407 161 113 47 399 161 635 252 739 285 782 310 693 412 -55 64 -87 72
-183 46z"/>
<path d="M4720 12299 c-634 -36 -1428 -133 -1421 -174 2 -15 298 -11 601 9
160 11 342 17 460 14 182 -3 197 -5 231 -25 45 -28 137 -31 260 -7 129 24 219
6 219 -46 0 -9 10 -26 23 -38 41 -39 95 -53 236 -62 179 -12 295 -42 468 -123
165 -78 232 -100 296 -101 61 -1 92 29 81 78 -17 81 -94 176 -130 162 -22 -9
-265 21 -409 49 -178 35 -245 64 -245 104 0 9 11 36 25 60 57 99 40 105 -290
107 -143 1 -325 -2 -405 -7z"/>
<path d="M3825 11994 c-322 -31 -729 -73 -777 -81 -31 -5 -38 -10 -38 -29 0
-44 96 -98 227 -128 88 -20 136 -20 233 -2 41 8 76 13 78 11 2 -2 -23 -17 -57
-34 -95 -49 -99 -83 -14 -113 62 -21 343 -14 608 15 126 14 231 25 232 23 3
-2 -348 -109 -412 -125 -146 -36 -296 -48 -471 -36 -144 10 -168 -1 -178 -75
-5 -38 -13 -54 -32 -66 -23 -15 -28 -15 -69 1 -25 9 -72 36 -104 60 -112 83
-302 287 -345 372 -24 48 -58 66 -124 66 -109 0 -238 -43 -306 -103 -36 -32
-37 -35 -31 -81 6 -43 4 -49 -18 -63 -13 -9 -64 -23 -113 -31 -203 -33 -560
-183 -871 -367 -102 -60 -159 -109 -264 -227 -39 -44 -50 -51 -83 -51 -48 0
-72 -13 -91 -50 l-16 -30 32 0 c51 0 226 75 534 230 318 160 566 269 684 302
153 42 281 124 351 228 22 33 45 60 49 60 15 0 21 -29 21 -96 0 -77 -32 -149
-83 -188 -18 -14 -112 -57 -208 -95 -317 -126 -627 -267 -892 -408 -207 -110
-297 -170 -314 -210 -16 -38 -62 -71 -113 -78 -141 -22 -195 -43 -259 -101
-39 -35 -69 -89 -57 -102 4 -3 26 4 49 16 64 34 107 27 107 -18 0 -4 -39 -61
-87 -126 -125 -172 -233 -334 -233 -351 0 -32 74 31 300 257 129 129 280 274
335 321 348 298 770 550 1112 664 153 52 175 47 101 -22 -136 -124 -628 -393
-785 -429 -82 -18 -108 -38 -123 -93 -13 -49 -71 -103 -148 -137 -124 -54
-162 -99 -140 -160 17 -47 3 -66 -56 -81 -67 -17 -122 -62 -297 -240 -264
-270 -503 -593 -439 -593 28 0 173 133 525 480 458 452 555 540 599 540 104 0
60 -108 -113 -279 -59 -58 -200 -196 -314 -305 -271 -260 -478 -490 -662 -736
-75 -100 -144 -225 -132 -237 28 -27 160 92 400 362 459 515 546 599 692 670
50 23 114 51 142 61 l53 18 33 -32 c55 -53 92 -41 197 62 94 92 121 106 209
106 106 0 176 34 275 133 83 83 193 226 202 264 23 90 -104 32 -475 -215 -188
-125 -346 -212 -387 -212 -34 0 -31 32 7 92 56 88 177 178 238 178 41 0 174
78 286 166 126 100 219 162 292 192 57 24 88 27 128 12 35 -13 65 3 65 35 0
64 40 100 127 116 69 13 119 37 154 76 34 37 40 57 25 79 -10 13 -22 16 -56
11 -77 -10 -97 9 -102 102 -4 59 -23 71 -78 46 -47 -21 -73 -13 -78 25 -10 62
67 112 176 114 68 1 131 -17 133 -38 1 -6 2 -22 2 -36 2 -17 10 -27 30 -34 26
-10 49 -7 285 34 25 4 45 3 49 -3 3 -5 -33 -46 -81 -91 -47 -45 -86 -87 -86
-94 0 -41 140 -40 640 4 257 23 359 27 645 27 626 0 1134 -60 1723 -204 227
-56 275 -46 197 40 -42 46 -100 69 -195 78 -82 7 -94 16 -75 53 21 40 70 78
113 86 53 10 129 -9 246 -61 145 -64 212 -85 273 -85 40 0 58 5 73 20 49 49
12 89 -94 101 -117 13 -225 49 -496 169 -402 177 -707 248 -1164 270 -105 5
-245 6 -311 3 -66 -3 -118 -3 -115 -1 15 16 274 110 366 134 89 22 131 28 229
28 186 0 271 -22 677 -173 467 -173 719 -241 812 -217 72 18 -46 91 -360 222
-271 113 -311 127 -555 193 -594 158 -1246 276 -1275 230 -4 -7 2 -16 12 -22
37 -21 74 -66 74 -91 0 -28 -42 -66 -73 -66 -23 0 -80 59 -122 125 -38 61 -71
85 -121 90 -21 2 -151 -7 -289 -21z m1531 -628 c342 -69 457 -103 508 -151 31
-29 33 -55 5 -105 -44 -78 -126 -93 -190 -36 -88 80 -371 125 -938 148 -240 9
-389 9 -700 0 -218 -7 -437 -12 -487 -12 -86 0 -191 13 -203 26 -12 11 18 40
55 52 119 40 515 86 959 112 290 16 334 18 560 14 204 -3 217 -4 431 -48z
m-2840 -348 c21 -33 -264 -237 -546 -390 -336 -183 -520 -254 -520 -201 0 28
113 127 234 207 269 177 574 334 736 377 79 22 87 22 96 7z"/>
<path d="M3820 10989 c-162 -12 -684 -89 -692 -102 -4 -6 -19 -61 -34 -122
-14 -60 -38 -132 -53 -160 l-26 -50 -95 0 c-91 0 -98 -2 -184 -43 -111 -53
-194 -112 -269 -190 -88 -93 -141 -224 -105 -260 20 -20 97 -14 136 10 45 28
77 95 62 133 -15 41 -12 80 10 107 15 20 37 29 107 42 266 53 489 168 508 263
17 81 28 104 62 132 70 58 230 107 426 131 94 12 198 10 399 -6 97 -8 128 -1
128 29 0 73 -141 104 -380 86z"/>
<path d="M4515 10931 c-18 -7 -18 -9 10 -23 72 -37 444 -118 630 -138 571 -58
1206 -301 1639 -627 133 -101 231 -213 184 -213 -22 0 -111 45 -227 114 -139
83 -411 224 -519 270 -97 42 -364 119 -582 169 -674 156 -1597 261 -1988 228
-154 -14 -219 -34 -242 -74 -14 -26 -14 -29 4 -43 27 -19 54 -18 207 12 148
29 250 36 256 17 5 -13 -63 -55 -127 -78 -25 -9 -130 -39 -235 -66 -463 -121
-809 -266 -791 -332 12 -46 -42 -104 -182 -195 -165 -107 -397 -202 -542 -222
-41 -5 -95 -15 -118 -21 -54 -15 -112 -67 -112 -101 0 -65 -136 -236 -394
-494 -197 -196 -338 -318 -437 -377 -72 -42 -93 -43 -97 -5 -6 50 37 110 172
238 356 337 677 688 799 870 39 58 47 103 24 134 -22 30 -53 11 -172 -104 -60
-59 -120 -112 -132 -119 -35 -18 -76 -13 -117 15 -29 20 -46 25 -72 21 -87
-14 -243 -157 -598 -547 -316 -346 -540 -575 -636 -652 -141 -111 -138 -107
-87 -138 79 -49 149 -10 353 194 83 83 243 261 355 396 251 302 387 459 498
573 72 74 89 87 117 87 31 0 64 -21 64 -41 0 -62 -120 -215 -460 -584 -466
-506 -778 -903 -887 -1132 -41 -84 -41 -117 0 -121 35 -4 87 45 87 82 0 14 12
39 28 56 25 28 48 36 145 55 49 10 67 38 67 108 1 94 37 162 173 326 86 102
175 171 223 171 31 0 34 -2 34 -31 0 -34 -35 -73 -132 -152 -63 -50 -97 -111
-109 -191 -13 -96 -43 -166 -113 -264 -94 -130 -142 -211 -217 -367 -121 -252
-147 -342 -163 -558 -12 -155 -11 -217 4 -217 14 0 200 201 235 253 41 63 42
70 25 125 -62 196 271 878 677 1388 109 137 342 371 493 496 490 404 1170 846
1346 874 69 11 103 -40 70 -104 -22 -43 -50 -62 -113 -78 -165 -43 -614 -338
-893 -587 -77 -70 -127 -98 -139 -78 -11 17 -85 -52 -264 -247 -431 -468 -864
-993 -939 -1138 -29 -56 -31 -65 -19 -87 15 -28 8 -44 -58 -147 -62 -96 -74
-188 -25 -207 26 -10 82 24 113 69 83 120 98 124 162 48 23 -27 50 -50 60 -50
24 0 67 54 97 120 41 94 102 283 101 320 l0 35 -28 -33 c-16 -18 -50 -74 -77
-124 -27 -49 -63 -106 -81 -127 -27 -30 -34 -34 -43 -21 -28 38 33 304 97 420
161 297 658 805 1213 1241 372 293 656 467 893 548 201 69 212 85 115 159 -33
24 -61 54 -64 68 -15 60 58 144 127 144 36 0 47 -7 127 -84 94 -90 134 -116
181 -116 42 0 67 36 75 109 6 54 11 64 44 91 41 34 153 71 272 91 41 7 179 13
305 14 213 2 234 4 272 23 51 26 83 70 90 121 11 80 -39 79 -401 -5 -276 -65
-382 -77 -403 -49 -16 23 -17 69 -2 97 13 24 83 57 122 58 58 0 115 47 124
102 8 51 31 63 80 43 79 -34 225 -56 513 -80 334 -28 621 -79 960 -171 556
-152 1052 -362 1431 -605 58 -37 134 -77 170 -89 88 -29 262 -58 402 -66 137
-8 138 -7 80 77 -66 97 -160 204 -296 335 -144 139 -226 202 -278 213 -57 12
-64 61 -15 117 25 29 62 35 134 19 61 -14 81 31 37 83 -77 92 -451 284 -713
366 -84 26 -152 34 -152 17 0 -17 81 -79 153 -117 40 -21 118 -59 174 -85 129
-59 173 -86 182 -113 11 -29 -6 -63 -44 -86 -59 -36 -83 -31 -311 74 -77 35
-120 49 -185 57 -96 12 -127 28 -136 70 -9 47 -52 75 -135 89 -40 6 -228 40
-418 75 -459 85 -450 83 -569 100 -263 37 -493 53 -536 36z m-911 -584 c16
-12 15 -16 -24 -51 -55 -50 -168 -103 -237 -112 -90 -11 -145 27 -129 91 7 27
70 61 137 74 72 14 233 13 253 -2z"/>
<path d="M6722 10914 c-32 -22 -28 -32 19 -44 47 -13 140 -4 166 15 45 34
-137 63 -185 29z"/>
<path d="M4642 10360 c-84 -20 -60 -51 102 -137 103 -55 139 -83 124 -99 -20
-20 -130 -25 -428 -19 -443 9 -502 -1 -525 -94 -5 -23 -18 -47 -28 -53 -22
-12 -95 -6 -159 12 -53 16 -65 11 -48 -20 6 -11 8 -29 5 -40 -12 -37 -87 -97
-199 -158 -112 -62 -145 -86 -133 -99 4 -3 49 -9 101 -12 52 -3 100 -11 106
-17 9 -9 -1 -22 -36 -50 -90 -74 -114 -96 -114 -105 0 -5 23 -9 50 -9 36 0 50
-4 50 -14 0 -16 -91 -103 -177 -169 -159 -122 -579 -394 -718 -465 -102 -52
-123 -58 -131 -38 -7 17 29 71 144 216 99 126 95 138 -22 70 -98 -57 -176
-114 -378 -277 -98 -78 -191 -149 -206 -157 -97 -50 -187 -153 -198 -227 -14
-95 -71 -201 -224 -419 -126 -179 -178 -272 -215 -381 -18 -53 -62 -166 -98
-250 -97 -229 -127 -345 -96 -364 29 -18 80 65 179 295 147 342 372 727 604
1037 88 118 222 263 271 293 69 43 135 48 135 11 0 -25 -42 -81 -198 -265
-233 -274 -350 -442 -374 -537 -9 -32 -7 -44 7 -65 15 -24 22 -26 65 -22 82 8
136 68 184 205 54 154 159 306 266 387 103 77 167 80 190 11 22 -66 -18 -115
-105 -130 -98 -16 -145 -49 -145 -101 0 -33 20 -73 41 -79 47 -15 171 88 346
287 108 123 236 234 375 325 120 79 189 110 298 133 263 57 325 26 132 -66
-260 -125 -302 -147 -375 -202 -469 -354 -992 -1143 -1173 -1766 -36 -127 -64
-264 -70 -346 l-5 -75 20 36 c30 54 75 172 148 384 71 209 97 262 146 297 29
21 41 23 125 20 114 -3 148 10 203 81 22 27 71 112 110 188 246 484 635 852
1084 1024 253 97 476 117 715 64 135 -29 283 -29 345 1 84 41 85 88 1 119 -82
30 -247 44 -441 38 -370 -13 -703 -82 -872 -181 -362 -212 -1033 -961 -1033
-1153 0 -94 -68 -146 -145 -111 -37 17 -33 56 19 171 63 139 166 313 266 447
47 63 111 153 141 200 93 143 240 276 489 442 163 108 343 199 465 233 125 36
175 61 175 89 0 13 -19 45 -42 71 -32 36 -45 61 -53 104 l-12 56 -46 5 c-82
10 -85 41 -8 79 60 30 123 40 242 40 117 0 159 -12 159 -43 0 -36 202 -84 285
-69 40 8 282 -16 373 -37 45 -11 125 -38 177 -60 138 -59 164 -54 203 34 32
70 121 118 152 81 12 -14 11 -22 -6 -52 -29 -55 -99 -122 -152 -145 -63 -28
-157 -28 -292 1 -168 36 -366 29 -451 -15 -36 -18 -37 -39 -1 -52 42 -16 71
-21 242 -42 316 -40 549 -101 685 -181 141 -83 184 -88 197 -26 13 64 25 77
66 77 97 0 406 -209 564 -382 196 -214 239 -315 147 -347 -18 -6 -98 -11 -183
-11 -101 0 -159 -4 -176 -13 -36 -18 -37 -61 -1 -123 31 -54 172 -216 303
-348 110 -111 116 -99 49 100 -53 154 -53 157 -37 191 16 35 53 71 166 166 55
45 65 59 63 83 -4 44 -87 157 -213 288 -222 230 -432 405 -568 473 l-72 36
-151 -7 c-108 -5 -155 -3 -165 5 -22 18 -17 98 9 144 63 113 203 95 435 -58
209 -137 341 -255 812 -728 423 -425 535 -518 572 -481 34 34 -57 179 -238
376 -70 76 -123 137 -118 135 13 -6 167 -127 288 -227 290 -240 514 -480 840
-900 131 -168 269 -320 320 -351 44 -28 76 -28 76 -1 0 44 -39 102 -290 430
-167 220 -210 284 -241 361 -23 59 -24 92 -4 109 39 33 137 -38 234 -170 110
-151 208 -268 321 -384 101 -105 187 -176 212 -176 45 0 -111 249 -323 514
-133 167 -216 256 -256 272 -49 21 -99 90 -206 284 -45 83 -91 129 -114 114
-25 -16 -34 -63 -23 -119 9 -45 23 -73 97 -194 23 -37 31 -105 13 -116 -32
-20 -170 83 -384 287 -191 181 -242 225 -318 267 -73 41 -143 50 -223 26 -67
-19 -140 -22 -159 -5 -8 6 -17 27 -21 47 -21 114 -98 225 -275 399 -139 137
-220 238 -220 275 0 11 6 19 14 19 26 0 159 -97 264 -192 208 -187 268 -238
316 -264 41 -23 55 -25 95 -19 75 13 144 10 182 -7 25 -11 85 -73 195 -199
252 -292 294 -328 310 -264 9 38 -1 66 -55 147 -71 104 -196 246 -399 452
-465 469 -870 804 -1132 936 -450 226 -1400 439 -1522 340 -43 -34 9 -85 114
-110 23 -6 129 -15 233 -20 203 -9 302 -24 485 -70 235 -59 450 -151 556 -237
70 -57 121 -83 184 -95 58 -11 158 -69 302 -176 322 -240 648 -546 615 -578
-23 -23 -220 103 -500 320 -198 153 -401 292 -462 317 -22 9 -66 24 -98 33
-37 11 -84 37 -135 75 -151 114 -289 162 -564 196 -141 17 -188 19 -188 7 0
-4 107 -52 238 -106 130 -54 327 -142 438 -196 309 -149 438 -241 418 -294
-10 -26 -48 -18 -105 20 -226 152 -1101 484 -1276 484 -71 0 -98 -37 -71 -96
11 -24 10 -29 -14 -49 -15 -13 -50 -28 -78 -34 -147 -32 -280 11 -280 88 0 49
-22 54 -167 35 -135 -16 -317 -24 -328 -12 -4 3 10 22 31 40 48 45 50 90 6
168 -63 113 -91 251 -59 294 22 30 322 88 608 116 159 16 511 8 604 -14 91
-21 204 -22 243 -2 16 8 48 38 72 65 71 86 125 88 364 15 70 -21 131 -34 153
-32 37 3 38 4 37 40 -2 64 -42 129 -99 160 -79 44 -330 139 -582 222 -240 79
-291 87 -381 66z m-1142 -1188 c0 -12 -125 -131 -225 -213 -248 -206 -449
-351 -588 -423 -120 -63 -167 -60 -167 9 0 59 31 96 102 125 99 40 182 90 439
262 297 198 439 276 439 240z"/>
<path d="M5808 10120 c-29 -18 -22 -56 15 -85 37 -27 168 -65 227 -65 98 0 70
80 -45 131 -57 24 -171 35 -197 19z"/>
<path d="M6276 9921 c-9 -14 121 -129 241 -213 59 -42 287 -193 506 -337 219
-143 474 -314 566 -380 179 -127 263 -177 282 -166 23 15 0 91 -66 220 -74
147 -154 260 -203 288 l-34 20 -29 -33 c-27 -29 -34 -32 -70 -27 -65 9 -197
78 -393 205 -419 274 -776 462 -800 423z"/>
<path d="M5890 9795 c55 -61 627 -417 815 -507 133 -64 205 -63 205 3 0 23
-10 36 -47 63 -190 139 -822 446 -953 463 l-45 6 25 -28z"/>
<path d="M5566 9711 c-15 -23 146 -137 439 -311 390 -232 827 -541 1026 -727
58 -54 204 -199 325 -322 120 -123 284 -283 364 -355 186 -168 302 -284 295
-296 -8 -14 11 -47 64 -110 73 -86 212 -230 223 -230 20 0 -11 281 -38 350
-13 32 -21 40 -41 40 -46 0 -154 91 -432 365 -219 215 -288 276 -333 298 -89
44 -261 237 -359 405 -41 70 -50 116 -23 126 86 33 210 -63 554 -429 179 -190
495 -487 503 -474 7 10 -12 277 -21 299 -16 42 -38 55 -68 41 -55 -25 -80 -15
-121 47 -49 75 -245 275 -358 367 -235 189 -523 355 -617 355 -39 0 -53 -6
-90 -36 -72 -61 -143 -87 -178 -64 -13 8 -13 13 3 39 25 43 22 55 -25 96 -66
57 -167 113 -518 289 -398 199 -557 265 -574 237z"/>
<path d="M3937 9670 c-96 -26 -177 -60 -177 -76 0 -19 74 -27 208 -22 96 3
126 8 164 27 53 25 71 57 42 78 -26 19 -155 15 -237 -7z"/>
<path d="M3002 9600 c-67 -30 -224 -124 -372 -223 -640 -427 -961 -718 -1138
-1035 -89 -158 -262 -547 -277 -622 -11 -52 -38 -100 -90 -161 -82 -95 -172
-310 -226 -536 -19 -82 -59 -336 -59 -383 0 -21 2 -22 13 -10 8 8 24 40 36 70
426 1037 653 1510 853 1774 97 128 181 218 348 374 225 210 385 334 541 422
308 171 529 351 431 350 -9 0 -36 -9 -60 -20z"/>
<path d="M3095 9412 c-88 -64 -165 -164 -165 -214 0 -24 4 -28 30 -28 38 0 82
27 146 90 53 53 98 128 92 158 -6 30 -58 27 -103 -6z"/>
<path d="M3985 8814 c-33 -35 -33 -84 -1 -120 51 -60 146 -20 146 62 0 77 -94
114 -145 58z"/>
<path d="M4970 8473 c-11 -16 -35 -50 -53 -78 -70 -109 -124 -119 -612 -110
-423 8 -451 4 -612 -77 -94 -48 -334 -216 -489 -343 -265 -219 -440 -438 -361
-453 63 -12 164 62 447 330 308 291 395 340 665 369 144 15 365 6 466 -20 155
-40 346 -127 592 -268 79 -46 90 -62 63 -98 -13 -18 -16 -18 -82 7 -38 15
-141 58 -229 96 -318 138 -445 167 -615 143 -157 -23 -370 -96 -508 -175 -644
-365 -1044 -1190 -983 -2028 15 -218 45 -474 72 -613 42 -227 91 -356 234
-625 110 -206 124 -246 106 -296 -15 -41 -11 -50 17 -33 46 29 152 -40 328
-216 150 -149 218 -234 250 -313 12 -30 31 -60 41 -66 26 -16 190 -11 308 8
188 31 388 90 488 144 57 30 119 119 227 322 37 69 87 157 110 195 58 94 117
213 135 272 22 71 19 100 -10 119 -21 14 -32 15 -73 5 -26 -7 -69 -27 -97 -46
-64 -43 -87 -49 -129 -35 -37 12 -126 100 -126 124 0 9 12 18 28 22 15 3 35 8
44 11 28 7 41 77 34 178 -12 162 -46 498 -62 605 -53 360 -159 671 -304 885
-59 88 -180 220 -222 241 -60 31 -118 14 -292 -86 -206 -117 -286 -148 -286
-111 0 5 25 47 56 92 31 45 67 106 80 135 27 62 40 68 189 84 55 6 148 18 207
26 140 21 167 15 235 -49 60 -57 175 -222 227 -326 31 -62 34 -74 39 -201 6
-134 17 -190 37 -190 5 0 26 24 46 54 20 30 43 57 51 60 38 15 79 -34 153
-184 96 -192 162 -280 211 -280 73 0 60 65 -57 294 -311 610 -554 912 -812
1009 -51 19 -75 21 -224 20 -93 -1 -168 0 -168 2 0 15 115 77 170 92 92 25
380 25 500 0 145 -30 270 -111 232 -149 -10 -10 -26 -9 -80 5 -82 21 -92 21
-92 2 0 -28 30 -76 135 -220 299 -409 519 -818 590 -1100 75 -294 143 -707
147 -887 3 -136 -23 -154 -74 -54 -51 100 -84 230 -98 388 -5 62 -14 169 -20
237 -17 189 -57 271 -132 271 -67 0 -159 77 -204 171 -12 24 -40 83 -63 130
-43 88 -81 136 -100 124 -27 -16 -10 -175 44 -415 13 -58 27 -145 30 -195 17
-218 77 -395 135 -395 35 0 39 59 14 245 -21 161 0 221 48 138 75 -128 156
-866 146 -1326 -5 -190 -8 -223 -33 -319 -37 -144 -27 -165 55 -113 40 25 60
31 60 18 0 -5 -9 -32 -20 -61 -23 -61 -15 -92 25 -92 58 0 85 112 85 358 0
279 25 441 83 536 13 21 54 58 92 85 87 59 103 82 114 161 26 191 -99 858
-224 1196 -20 55 -86 194 -146 311 -184 357 -324 653 -288 613 91 -104 184
-225 234 -305 168 -267 410 -851 494 -1190 30 -125 40 -181 51 -315 13 -147
35 -210 73 -210 33 0 140 -99 166 -154 51 -103 82 -462 62 -693 -34 -376 -126
-617 -205 -537 -28 27 -20 116 24 268 46 158 50 206 21 206 -44 0 -174 -162
-187 -233 -7 -41 -40 -74 -83 -83 -92 -20 -184 -114 -286 -294 -83 -146 -174
-251 -199 -230 -23 19 -20 41 21 143 48 120 51 205 10 288 -34 69 -74 108
-121 116 -32 5 -40 2 -70 -30 -52 -55 -66 -146 -26 -167 14 -8 30 -5 65 12 54
26 78 18 83 -29 3 -34 -31 -74 -91 -104 -45 -23 -73 -13 -83 29 -12 55 -16 62
-32 62 -22 0 -49 -19 -136 -93 -123 -105 -244 -143 -426 -133 -136 7 -245 35
-400 103 -224 98 -289 118 -304 94 -9 -14 55 -88 110 -128 172 -124 627 -283
818 -284 72 -1 83 2 96 21 29 42 63 70 99 80 53 15 150 12 209 -5 65 -20 132
-80 132 -118 0 -32 -14 -34 -86 -12 -63 19 -160 19 -213 0 -23 -8 -61 -28 -85
-45 -66 -48 -140 -64 -291 -63 -136 1 -228 16 -327 53 -71 26 -104 57 -118
109 -11 42 -33 54 -57 30 -24 -24 -128 45 -300 200 -175 157 -363 380 -363
431 0 61 -317 441 -409 489 -90 48 -8 -141 167 -383 331 -460 858 -920 1158
-1013 90 -28 491 -25 657 5 245 45 328 107 543 409 135 191 212 277 237 267
23 -9 31 -66 18 -122 -43 -171 -287 -513 -459 -641 -108 -81 -133 -86 -452
-86 -157 1 -319 6 -377 13 -506 63 -881 312 -1212 806 -38 57 -126 201 -195
321 -140 242 -167 282 -201 295 -27 10 -31 22 -41 105 -10 90 -39 174 -84 243
-52 81 -65 81 -56 0 65 -586 542 -1283 1159 -1692 201 -133 399 -219 590 -257
119 -23 351 -25 507 -5 351 47 563 167 693 394 87 151 186 233 294 245 106 12
176 75 189 170 4 26 3 47 -2 47 -5 0 -50 -34 -99 -75 -134 -113 -150 -111
-150 15 0 70 3 81 25 105 25 27 27 27 105 20 182 -18 195 -11 206 114 9 106
42 200 95 275 24 33 54 81 65 105 l21 44 -21 101 c-12 55 -28 171 -37 256 -22
231 -34 274 -123 460 -88 185 -130 305 -138 397 -7 80 1 113 28 113 54 0 106
-109 149 -310 57 -268 152 -460 216 -436 25 10 14 90 -40 286 -25 91 -66 258
-91 372 -79 361 -186 618 -255 618 -49 0 -63 -59 -34 -142 30 -90 3 -149 -54
-118 -39 23 -83 101 -126 231 -148 437 -342 844 -514 1075 -71 96 -117 138
-188 169 -35 16 -60 35 -74 57 -56 92 -27 204 58 228 30 8 37 6 71 -25 43 -39
168 -213 262 -365 172 -277 312 -559 336 -676 24 -123 74 -204 168 -275 77
-58 91 -49 61 38 -109 316 -382 859 -561 1118 -65 94 -122 152 -340 345 -227
202 -357 302 -468 358 l-72 37 -220 -3 -220 -3 -73 -40 c-232 -129 -451 -353
-589 -607 -75 -136 -127 -302 -103 -326 17 -17 54 30 119 152 89 165 133 226
241 332 147 145 309 233 537 292 154 39 306 48 385 24 125 -40 338 -253 338
-338 0 -21 -6 -29 -24 -34 -39 -9 -103 14 -266 98 -183 93 -258 113 -387 104
-275 -20 -500 -192 -648 -496 -33 -68 -36 -80 -31 -134 l6 -60 -49 -45 c-34
-32 -55 -63 -69 -103 -64 -172 -83 -451 -35 -499 21 -21 23 -21 47 -5 42 27
58 72 66 183 9 123 29 168 76 168 24 0 32 -7 47 -38 17 -33 18 -45 7 -105 -6
-37 -27 -101 -46 -143 -51 -113 -46 -149 27 -219 43 -41 49 -70 28 -141 -13
-43 -1 -69 32 -69 45 0 87 119 129 366 41 243 80 343 145 369 44 19 49 38 23
97 -28 65 -18 84 42 81 61 -3 127 -39 196 -108 182 -181 323 -537 364 -917 15
-140 13 -213 -11 -393 -11 -89 -24 -257 -27 -379 l-7 -218 -39 -34 c-59 -51
-145 -74 -273 -74 -165 0 -257 30 -366 121 -86 72 -160 83 -290 41 -44 -13
-50 -13 -64 1 -14 14 -14 23 -3 76 22 105 -2 184 -64 205 -31 12 -73 -14 -95
-59 -56 -115 238 -596 453 -739 54 -36 117 -36 145 0 12 15 21 36 21 47 0 33
-124 146 -210 192 l-75 40 -3 58 c-3 58 8 87 33 87 7 0 43 -23 81 -51 83 -62
179 -109 237 -116 51 -7 87 -37 87 -74 0 -15 -7 -58 -15 -94 -36 -152 42 -188
192 -88 48 32 81 64 292 285 79 82 135 123 154 111 4 -2 5 -26 1 -51 -25 -173
-136 -415 -233 -506 l-31 -30 -125 12 c-107 11 -140 11 -242 -4 -214 -29 -284
-6 -433 144 -86 87 -234 269 -317 392 -17 25 -48 91 -68 145 -20 55 -87 204
-150 330 -120 244 -140 298 -174 465 -41 206 -54 353 -54 615 0 349 28 545
109 762 157 420 477 786 852 973 198 98 348 135 557 135 164 0 210 -10 315
-67 237 -129 561 -483 796 -868 144 -236 447 -895 626 -1360 120 -309 181
-511 198 -647 13 -107 49 -202 101 -269 86 -112 150 -360 180 -701 13 -153 4
-264 -26 -309 -13 -21 -23 -25 -53 -22 -42 3 -41 -1 -27 150 7 64 5 82 -9 103
-20 31 -46 32 -73 3 -41 -45 -46 -69 -55 -263 -4 -104 -19 -302 -33 -440 -32
-323 -26 -364 49 -328 29 13 39 14 49 4 16 -17 13 -142 -8 -311 -50 -398 -151
-685 -292 -825 -75 -76 -83 -112 -34 -167 30 -34 74 -42 136 -23 l29 8 -34
-43 c-105 -133 -413 -411 -510 -460 -124 -63 -81 20 91 175 131 119 209 215
224 278 6 24 4 27 -17 27 -36 0 -97 -47 -239 -186 -216 -209 -313 -238 -327
-96 l-4 48 78 23 c104 30 184 72 223 116 27 31 31 42 26 69 -27 129 -142 124
-358 -17 -105 -69 -173 -136 -189 -189 -11 -36 -10 -44 11 -84 40 -74 163
-144 255 -144 62 0 86 -9 86 -33 0 -11 -25 -59 -55 -107 -75 -119 -73 -127 20
-91 80 32 180 88 335 189 333 218 600 441 600 503 0 52 -25 125 -51 151 -24
25 -33 28 -68 22 -53 -8 -54 7 -7 85 89 148 204 594 251 976 18 146 19 241 4
372 -12 113 -29 153 -63 153 -28 0 -76 51 -76 80 0 54 47 85 116 74 52 -7 66
1 95 59 36 69 51 179 52 367 1 293 -43 541 -129 730 -27 57 -51 90 -104 141
-56 54 -70 73 -70 97 0 19 6 32 17 36 24 10 82 -12 135 -51 159 -115 215 -283
237 -711 8 -138 13 -180 29 -210 20 -38 55 -64 78 -55 39 15 45 174 14 381
-26 180 -62 309 -116 421 -43 88 -56 104 -193 240 -174 172 -214 236 -226 363
-8 89 -49 294 -71 363 -9 27 -88 190 -175 360 -230 452 -275 570 -267 686 4
59 44 140 79 162 51 32 114 -42 219 -258 93 -191 173 -435 142 -435 -14 0 -77
82 -200 265 -119 176 -139 202 -147 194 -8 -9 33 -192 62 -274 51 -141 166
-335 209 -352 38 -14 198 -424 233 -599 11 -50 29 -110 41 -134 45 -88 171
-193 213 -177 22 8 22 58 1 100 -9 18 -36 51 -60 73 -50 47 -53 63 -28 157 9
36 13 78 10 99 -3 21 -36 117 -72 215 -98 263 -114 314 -235 712 -61 200 -119
381 -129 402 -31 60 -164 231 -274 352 -227 250 -304 345 -331 411 -19 46 -43
57 -133 66 -90 9 -115 27 -106 78 6 31 2 38 -57 96 -35 34 -107 88 -159 120
-141 86 -220 169 -205 216 22 68 216 27 360 -75 200 -142 544 -545 824 -963
148 -221 205 -330 276 -529 37 -104 89 -199 118 -215 42 -22 78 -165 96 -378
15 -175 53 -290 97 -290 41 0 79 -170 70 -310 -6 -94 -6 -97 63 -355 159 -598
200 -720 234 -686 8 8 12 52 12 144 -1 156 -21 278 -76 455 -47 151 -58 232
-35 251 13 11 19 9 41 -13 53 -53 91 -161 184 -526 56 -220 72 -320 101 -639
31 -342 72 -499 142 -549 64 -46 82 -234 53 -552 -30 -336 -74 -547 -180 -860
-25 -74 -45 -136 -45 -139 0 -5 98 101 164 179 130 150 159 296 176 880 26
891 30 1093 24 1146 -9 76 -18 55 -44 -106 -57 -364 -94 -469 -127 -367 -44
134 -103 784 -77 851 15 40 60 -1 153 -142 36 -54 66 -90 73 -86 13 9 7 75
-32 353 -17 118 -29 231 -28 250 l4 36 23 -50 c87 -187 124 -256 161 -298 55
-62 88 -79 140 -71 34 6 45 3 65 -16 57 -54 37 -187 -34 -217 -20 -8 -43 -19
-51 -22 -82 -38 -130 -460 -99 -865 19 -258 61 -404 120 -425 16 -5 29 -12 29
-14 0 -3 -38 -4 -84 -3 -71 1 -89 -2 -113 -20 -15 -12 -29 -31 -31 -42 -4 -27
37 -69 75 -77 73 -16 97 -53 102 -156 6 -133 -5 -136 -94 -23 -33 42 -61 71
-63 66 -2 -6 6 -41 17 -77 12 -37 21 -82 21 -101 0 -102 -55 -235 -175 -425
-93 -146 -125 -213 -125 -259 0 -44 5 -51 57 -83 23 -14 44 -31 47 -36 4 -6
-18 -28 -49 -51 -75 -55 -102 -100 -114 -184 -11 -76 -33 -109 -88 -132 -42
-18 -85 -18 -128 0 -71 30 -40 95 108 229 89 81 107 112 90 150 -6 12 -51 66
-101 120 -132 141 -136 175 -47 379 87 198 149 489 176 823 17 210 -1 375 -41
375 -19 0 -60 -68 -85 -143 -33 -100 -44 -189 -45 -362 -1 -318 -34 -462 -218
-930 -87 -222 -132 -348 -132 -368 0 -16 30 14 93 96 70 90 134 140 175 135
24 -3 27 -7 30 -47 4 -56 -25 -116 -119 -241 -100 -134 -162 -227 -193 -287
-48 -96 -36 -104 85 -63 104 36 139 34 139 -6 0 -37 -33 -96 -123 -217 -43
-59 -77 -110 -74 -113 15 -15 305 245 507 452 452 466 748 866 664 898 -49 19
-111 -26 -139 -101 -59 -159 -155 -275 -255 -308 -77 -25 -81 -13 -32 89 49
103 117 206 232 351 48 61 95 126 105 145 18 35 18 53 -1 259 l-7 74 37 -7
c53 -10 74 0 107 52 60 94 123 350 169 682 20 139 21 168 10 280 -44 492 -203
1117 -336 1328 -42 65 -68 69 -91 15 -13 -31 -14 -63 -9 -178 3 -77 9 -156 12
-175 11 -60 -11 -22 -50 90 -48 137 -73 178 -175 282 -47 48 -89 95 -94 104
-6 10 -13 90 -18 178 -12 230 -40 348 -144 595 -47 113 -115 343 -115 392 0
58 41 -10 194 -321 132 -270 285 -533 358 -614 27 -31 54 -56 59 -56 66 0
-221 655 -465 1059 -241 401 -417 584 -351 367 19 -62 19 -108 0 -170 -21 -69
-19 -113 11 -208 20 -62 24 -89 17 -108 -14 -39 16 -142 121 -412 124 -319
244 -1047 195 -1187 -13 -36 -21 -38 -47 -11 -29 31 -50 108 -67 243 -9 67
-20 158 -26 202 -25 193 -94 484 -176 738 -59 186 -89 259 -180 451 -65 137
-76 168 -80 225 -4 66 -4 66 36 109 54 58 65 96 58 201 -6 96 -32 173 -89 262
-47 73 -161 204 -166 190 -2 -6 21 -80 51 -163 85 -235 103 -322 74 -347 -8
-6 -33 -8 -64 -4 -47 5 -54 3 -78 -22 -26 -25 -27 -31 -22 -85 8 -70 39 -158
141 -393 85 -195 110 -282 86 -297 -12 -8 -12 -17 5 -66 11 -32 35 -83 54
-113 98 -160 123 -235 125 -371 1 -93 -14 -146 -45 -155 -48 -15 -81 22 -93
105 -14 96 -100 391 -228 780 -220 673 -356 923 -704 1290 -223 236 -276 302
-295 373 -9 32 -7 45 11 82 28 57 101 125 137 126 69 3 95 -9 183 -82 76 -63
94 -62 98 9 2 40 -2 61 -18 86 -40 66 -192 179 -332 246 -84 41 -129 48 -171
29 -35 -16 -129 19 -272 100 -167 95 -179 101 -219 101 -26 0 -40 -7 -56 -27z
m198 -159 c29 -14 62 -39 73 -56 26 -36 90 -67 140 -68 20 0 69 7 108 16 151
34 248 -23 197 -115 -10 -19 -38 -32 -116 -57 -94 -31 -105 -32 -140 -20 -44
15 -165 99 -270 188 -132 111 -127 179 8 112z m79 -742 c172 -128 333 -305
389 -427 27 -59 29 -73 21 -185 -2 -30 1 -35 23 -39 14 -2 62 10 107 25 45 16
85 25 89 21 4 -4 -1 -18 -12 -31 -10 -13 -52 -65 -93 -115 -77 -95 -102 -109
-133 -73 -9 9 -41 68 -73 131 -65 127 -143 249 -288 450 -100 137 -174 271
-163 290 15 24 58 8 133 -47z m2773 -3463 c0 -6 -10 -24 -21 -41 -30 -42 -22
-119 30 -282 53 -165 61 -247 31 -336 -32 -100 -44 -204 -30 -270 6 -30 10
-75 8 -100 -7 -96 -54 -39 -141 170 -31 74 -67 161 -81 193 -28 63 -33 97 -13
97 6 0 31 -7 55 -15 36 -13 47 -13 75 -2 45 19 60 41 60 87 0 46 -8 57 -84
116 -37 28 -65 60 -79 90 -21 42 -22 51 -11 97 17 75 80 152 158 192 34 18 43
19 43 4z"/>
<path d="M2153 7888 c-42 -45 -82 -108 -134 -208 -70 -135 -133 -185 -185
-145 -10 8 -34 15 -52 15 -110 1 -322 -273 -339 -437 -7 -67 2 -103 26 -103
30 0 70 55 123 168 88 188 151 272 203 272 84 0 77 -48 -54 -349 -81 -186
-116 -294 -136 -431 -27 -172 -11 -421 27 -428 37 -7 87 149 114 356 36 274
120 545 251 805 56 113 110 193 180 270 55 59 103 144 103 182 0 68 -75 87
-127 33z"/>
<path d="M6490 7748 c0 -56 128 -231 380 -518 288 -329 514 -635 648 -880 108
-199 324 -712 444 -1055 95 -272 137 -420 163 -580 45 -272 160 -781 209 -925
26 -76 68 -140 91 -140 48 0 61 193 25 371 -22 109 -93 369 -170 629 -185 622
-308 1123 -285 1160 21 35 58 -10 102 -125 120 -314 158 -398 212 -473 53 -72
120 -99 173 -71 19 10 17 14 -36 60 -46 42 -65 70 -115 172 -32 67 -83 187
-111 267 -96 265 -162 387 -203 376 -34 -8 -100 37 -155 106 -27 35 -89 124
-138 198 -48 74 -144 216 -212 315 -124 179 -162 245 -188 317 -31 88 33 39
191 -147 347 -408 836 -1075 910 -1240 27 -60 60 -92 106 -105 84 -24 77 56
-20 245 -78 151 -155 277 -215 355 -24 30 -69 98 -101 150 -75 125 -136 194
-193 223 -57 28 -136 128 -264 334 -97 154 -183 264 -231 294 -22 13 -42 17
-64 13 -39 -7 -58 18 -67 90 -11 92 -107 222 -197 270 -49 26 -69 17 -69 -31
0 -48 26 -90 84 -139 46 -38 96 -120 96 -156 0 -61 -115 28 -370 287 -226 230
-312 310 -369 347 -54 34 -61 34 -61 6z"/>
<path d="M6358 7488 c-8 -15 -14 -73 -16 -169 -6 -226 28 -365 110 -451 37
-39 76 -50 96 -25 50 60 -6 407 -96 587 -41 83 -70 101 -94 58z"/>
<path d="M2715 7283 c-56 -60 -248 -490 -328 -738 -41 -123 -77 -267 -77 -302
0 -87 -43 -117 -155 -107 -61 6 -79 4 -101 -10 -58 -39 -100 -186 -164 -580
-44 -268 -44 -266 -30 -318 21 -74 80 -74 112 0 17 38 23 79 29 215 12 242 48
360 133 435 40 35 82 46 139 38 81 -13 87 -37 18 -81 -75 -47 -151 -254 -155
-418 -1 -72 1 -80 23 -98 13 -10 33 -19 46 -19 54 0 83 -20 104 -73 174 -446
190 -497 161 -532 -17 -20 -94 -20 -114 1 -19 18 -18 17 -6 69 13 55 5 75 -29
75 -43 0 -53 -20 -53 -104 1 -92 33 -219 73 -280 48 -77 103 -73 164 11 38 53
72 56 139 12 68 -45 133 -132 222 -293 145 -263 208 -361 322 -498 132 -160
317 -274 527 -324 61 -14 219 -62 352 -105 292 -96 347 -105 420 -64 91 49
185 145 143 145 -37 0 21 103 149 263 159 201 180 243 141 285 -42 44 -68 25
-198 -150 -93 -124 -164 -188 -259 -235 l-77 -38 -290 1 c-274 1 -295 2 -355
23 -112 39 -194 101 -382 290 -275 277 -430 486 -578 781 -183 367 -262 681
-280 1122 -9 225 -20 279 -63 325 -12 13 -32 23 -44 23 -45 0 -34 22 51 104
81 78 86 85 75 107 -19 35 -7 214 25 354 56 249 114 394 192 478 79 85 108
189 61 221 -32 23 -54 20 -83 -11z m-385 -1621 c20 -75 7 -232 -21 -232 -13 0
-24 68 -24 160 0 123 21 157 45 72z"/>
<path d="M759 7190 c-28 -16 -141 -189 -176 -269 -49 -114 -42 -154 23 -126
57 25 112 84 151 163 33 67 38 85 38 148 0 78 -9 99 -36 84z"/>
<path d="M2252 6933 c-48 -69 -135 -275 -178 -422 -27 -94 -36 -193 -18 -211
42 -42 137 123 228 394 46 136 56 218 31 246 -24 27 -40 25 -63 -7z"/>
<path d="M1304 6860 c-35 -14 -39 -29 -39 -140 0 -164 -37 -210 -178 -225 -37
-4 -70 -12 -74 -18 -3 -6 5 -19 18 -29 81 -62 104 -86 125 -133 39 -84 62
-193 78 -372 29 -308 58 -456 111 -568 35 -74 70 -125 86 -125 15 0 10 96 -10
225 -42 258 -36 392 25 570 19 56 34 113 34 129 0 45 -30 84 -107 137 -40 28
-73 52 -73 54 0 11 55 234 76 305 13 46 24 103 24 126 0 62 -38 88 -96 64z"/>
<path d="M1073 6810 c-53 -32 -60 -99 -19 -159 14 -20 35 -42 48 -50 19 -12
24 -11 40 9 13 17 18 40 18 92 0 106 -30 143 -87 108z"/>
<path d="M279 6717 c-85 -44 -143 -174 -105 -233 13 -19 22 -23 39 -18 43 13
117 76 167 142 56 75 70 109 49 123 -27 17 -105 10 -150 -14z"/>
<path d="M540 6478 c-43 -70 -60 -177 -60 -383 0 -228 26 -485 50 -485 13 0
19 26 35 148 44 353 47 752 4 752 -5 0 -18 -15 -29 -32z"/>
<path d="M2995 6478 c-24 -35 -55 -143 -66 -238 -35 -280 -13 -634 56 -897 30
-113 58 -171 90 -183 36 -14 47 -43 39 -106 l-6 -54 36 -15 c68 -29 166 -12
166 29 0 12 -25 65 -56 117 -70 117 -88 163 -115 286 -18 85 -22 150 -29 488
-9 410 -17 502 -52 573 -6 12 -19 22 -29 22 -10 0 -25 -10 -34 -22z"/>
<path d="M766 6409 c-29 -71 -19 -400 13 -457 11 -20 37 8 51 56 28 96 29 345
1 415 -16 41 -46 35 -65 -14z"/>
<path d="M3941 6223 c-78 -83 -183 -325 -185 -428 -1 -74 16 -102 82 -138 69
-38 86 -59 79 -102 -3 -20 -16 -52 -28 -71 -18 -30 -26 -35 -48 -30 -118 28
-185 12 -229 -54 -22 -33 -23 -42 -20 -177 l3 -142 -37 -38 c-49 -50 -70 -111
-71 -203 -1 -112 44 -185 130 -215 37 -13 39 -13 61 16 45 56 100 36 204 -73
31 -33 63 -58 70 -56 30 10 12 187 -23 232 -11 14 -49 39 -84 56 -94 45 -155
126 -128 169 19 30 98 26 167 -8 79 -39 169 -119 196 -177 22 -44 22 -46 5
-90 -19 -50 -16 -59 14 -49 56 17 174 185 229 326 57 143 67 199 66 379 0 273
-39 391 -258 769 -42 73 -95 129 -129 137 -24 5 -34 0 -66 -33z m101 -140 c28
-32 48 -81 68 -165 47 -198 94 -560 88 -680 -4 -105 -22 -123 -132 -139 -95
-13 -184 0 -256 36 -49 25 -100 76 -100 100 0 27 31 45 78 45 37 0 57 -7 95
-34 60 -43 88 -50 130 -32 47 19 75 82 89 194 15 119 1 242 -33 278 -27 29
-43 30 -109 4 -66 -26 -78 -25 -92 5 -22 49 61 325 114 382 26 28 40 29 60 6z"/>
<path d="M227 6173 c-8 -10 -23 -54 -31 -98 -19 -95 -47 -400 -39 -424 11 -31
47 -61 73 -61 22 0 29 6 38 38 27 90 52 410 38 486 -7 35 -36 76 -54 76 -5 0
-16 -8 -25 -17z"/>
<path d="M1573 6113 c-14 -68 -7 -606 11 -808 37 -407 62 -571 95 -604 24 -24
36 -63 62 -206 23 -128 20 -115 95 -354 63 -199 65 -201 140 -201 82 0 98 42
58 151 -219 603 -285 892 -334 1460 -11 130 -25 272 -30 315 -32 240 -75 350
-97 247z"/>
<path d="M962 6108 c-17 -17 -15 -104 4 -196 20 -101 76 -265 91 -270 43 -13
53 212 16 334 -35 111 -79 164 -111 132z"/>
<path d="M1762 5968 c-26 -26 -13 -67 39 -121 l50 -52 20 24 c30 36 26 105 -7
136 -29 27 -81 34 -102 13z"/>
<path d="M3247 5879 c-23 -14 -47 -68 -47 -108 0 -17 11 -46 24 -66 34 -50 42
-78 70 -248 14 -82 30 -155 37 -163 18 -22 91 -18 117 6 31 29 37 60 36 180 0
108 -13 205 -40 298 -13 45 -21 57 -61 82 -49 31 -102 39 -136 19z"/>
<path d="M798 5688 c-9 -31 -12 -137 -13 -363 0 -326 8 -408 40 -435 21 -18
51 39 67 124 18 100 15 416 -4 532 -17 94 -49 184 -67 184 -6 0 -16 -19 -23
-42z"/>
<path d="M510 5451 c-47 -46 -51 -182 -14 -428 16 -113 27 -131 48 -82 22 54
66 314 66 390 0 125 -44 177 -100 120z"/>
<path d="M1236 5301 c-24 -39 -13 -206 14 -206 33 0 53 135 27 184 -13 27 -32
37 -41 22z"/>
<path d="M1938 5058 c-6 -13 -12 -55 -12 -95 0 -56 4 -76 18 -92 27 -30 60
-26 90 10 35 41 35 93 1 140 -47 63 -76 74 -97 37z"/>
<path d="M1441 5032 c-29 -73 -45 -220 -46 -422 0 -191 2 -209 23 -261 26 -65
65 -112 89 -107 9 2 25 16 37 31 37 49 34 142 -12 377 -22 113 -46 249 -52
303 -7 53 -16 99 -20 102 -4 3 -13 -8 -19 -23z"/>
<path d="M1064 4985 c-3 -20 3 -102 15 -188 11 -83 32 -242 46 -351 14 -110
29 -215 34 -235 5 -20 12 -49 16 -65 4 -21 9 -26 15 -17 9 15 26 480 22 586
-6 133 -46 256 -94 289 -34 24 -46 19 -54 -19z"/>
<path d="M8360 4891 c-16 -31 -12 -159 11 -292 45 -266 197 -789 229 -789 34
0 24 424 -16 640 -54 296 -174 533 -224 441z"/>
<path d="M1997 4713 c-13 -13 -7 -74 14 -136 39 -117 145 -294 165 -275 14 15
3 112 -21 185 -53 156 -125 260 -158 226z"/>
<path d="M844 4608 c-45 -128 106 -847 232 -1101 60 -123 95 -155 108 -103 27
107 -181 986 -278 1176 -26 51 -50 62 -62 28z"/>
<path d="M5510 4390 c-98 -105 -168 -586 -104 -717 16 -32 24 -38 56 -41 71
-6 137 83 123 167 -8 46 1 65 118 260 174 291 161 361 -69 361 -94 0 -97 -1
-124 -30z"/>
<path d="M1536 4168 c-3 -7 -21 -84 -41 -170 -20 -87 -41 -160 -46 -163 -5 -3
-23 15 -41 41 -47 68 -89 115 -98 109 -13 -8 -19 -112 -9 -187 23 -183 86
-248 180 -185 48 32 57 65 35 126 -15 44 -16 52 -3 84 16 37 51 67 79 67 25 0
45 -36 53 -95 16 -112 79 -164 144 -119 20 15 23 23 19 66 -8 82 -95 242 -189
349 -45 51 -81 85 -83 77z"/>
<path d="M2193 4073 c-8 -21 12 -121 37 -177 10 -25 35 -68 54 -96 38 -55 66
-134 66 -185 0 -82 98 -290 237 -505 99 -151 257 -312 354 -358 36 -17 83 -45
104 -62 41 -33 55 -37 55 -17 0 24 -57 103 -148 205 -111 124 -143 178 -302
512 -176 370 -302 585 -391 665 -44 39 -57 43 -66 18z"/>
<path d="M7018 4069 c-24 -13 -48 -100 -48 -173 0 -73 -34 -155 -71 -172 -13
-6 -40 -18 -60 -27 -45 -19 -79 -84 -111 -214 -30 -119 -33 -380 -5 -430 32
-60 92 -69 115 -18 7 14 12 65 12 113 0 152 40 283 87 290 23 3 23 3 37 -103
13 -98 -30 -490 -80 -725 -30 -144 -31 -213 -4 -240 37 -37 68 -23 105 50 14
26 20 75 27 190 5 85 20 243 34 350 31 238 45 590 33 820 -12 236 -31 312 -71
289z"/>
<path d="M2008 3825 c-27 -60 49 -280 197 -570 107 -210 186 -342 354 -594
122 -182 218 -351 241 -425 12 -36 11 -40 -14 -65 -21 -21 -30 -24 -44 -15
-26 16 -99 109 -240 308 -301 422 -467 701 -527 886 -25 78 -68 161 -100 193
-33 32 -82 36 -115 9 l-22 -18 27 -79 c69 -207 292 -601 481 -849 77 -100 110
-165 96 -187 -16 -25 19 -68 186 -231 194 -188 218 -240 142 -309 -23 -21 -40
-46 -40 -58 0 -42 143 -171 190 -171 13 0 24 9 30 26 11 28 12 249 1 334 -10
82 -6 90 39 90 52 0 130 -43 280 -155 340 -253 565 -361 770 -372 84 -5 98 -3
119 15 24 19 25 20 8 46 -10 14 -40 41 -67 59 -84 55 -78 71 31 82 122 12 201
-11 264 -79 27 -29 59 -50 100 -66 93 -34 231 -60 328 -60 107 0 157 17 157
53 0 54 -100 85 -300 93 -172 6 -198 10 -181 27 6 7 48 32 93 57 85 47 102 64
71 74 -10 3 -124 10 -253 16 -129 6 -252 14 -273 19 -46 11 -73 33 -82 68 -15
62 59 100 172 89 77 -8 113 0 113 24 0 24 -39 51 -115 80 -46 18 -81 23 -155
24 -109 1 -150 -15 -150 -59 0 -74 -43 -104 -125 -86 -68 16 -145 56 -294 155
-154 103 -234 135 -296 118 -30 -8 -53 -8 -81 0 -100 27 -228 120 -260 189
-78 165 -108 216 -209 361 -127 182 -173 267 -241 443 -53 138 -175 393 -229
478 -40 62 -59 70 -77 32z m1346 -1726 c324 -138 483 -225 512 -282 14 -26 13
-31 -11 -72 -43 -74 -81 -79 -129 -16 -11 14 -35 41 -53 60 -29 29 -37 32 -71
27 -84 -14 -103 -7 -215 84 -114 91 -272 280 -236 280 7 0 98 -37 203 -81z"/>
<path d="M6141 3543 c-94 -114 -187 -432 -198 -678 -4 -97 -2 -127 11 -159 9
-21 16 -42 16 -47 0 -18 -35 -8 -157 47 -70 32 -152 61 -186 66 -109 18 -145
-14 -157 -138 -6 -64 -13 -83 -45 -130 -65 -94 -182 -187 -310 -245 -35 -16
-121 -40 -192 -55 -70 -14 -136 -32 -145 -41 -29 -26 -41 -80 -36 -167 7 -129
40 -177 132 -190 53 -7 86 -42 97 -102 5 -27 15 -55 23 -62 27 -27 39 21 34
132 -5 107 -33 191 -70 208 -51 23 -53 26 -52 61 1 41 24 81 55 97 18 10 28 4
84 -54 51 -54 68 -66 94 -66 47 0 96 30 194 118 49 44 114 92 145 108 50 26
66 29 136 27 89 -3 140 17 169 65 21 36 55 72 69 72 5 0 25 -16 44 -37 41 -44
53 -37 84 45 48 127 86 331 150 807 12 88 30 200 41 250 11 50 15 93 10 98 -5
5 -22 -8 -40 -30z m-385 -904 c41 -46 10 -143 -70 -217 -46 -42 -86 -60 -107
-47 -19 12 -5 87 30 162 54 114 104 149 147 102z"/>
<path d="M8366 3522 c-37 -41 -49 -129 -53 -377 -4 -203 -2 -243 11 -260 14
-19 15 -19 29 15 32 75 77 386 77 530 0 88 -29 130 -64 92z"/>
<path d="M1453 3460 c-56 -23 -13 -148 122 -355 189 -289 682 -945 785 -1043
52 -50 93 -72 107 -58 28 28 -299 512 -467 690 -124 132 -220 304 -245 441
-26 140 -105 258 -207 309 -56 28 -62 29 -95 16z"/>
<path d="M1209 3211 c-40 -40 -40 -93 0 -149 54 -74 92 -65 106 24 11 78 -16
154 -56 154 -11 0 -34 -13 -50 -29z"/>
<path d="M1452 2998 c-21 -21 -13 -53 22 -100 55 -72 90 -77 106 -18 13 47 6
75 -23 108 -23 25 -84 31 -105 10z"/>
<path d="M6683 2828 c-54 -60 -81 -160 -98 -378 -14 -170 -26 -216 -70 -275
-50 -64 -54 -162 -14 -334 32 -137 64 -198 123 -228 55 -29 126 18 126 84 0
47 -11 64 -69 103 -94 65 -113 145 -64 275 88 236 119 375 129 575 4 84 2 126
-7 154 -17 48 -29 53 -56 24z"/>
<path d="M8228 2710 c-55 -43 -238 -337 -238 -383 0 -40 33 -44 88 -10 65 40
96 90 148 237 58 167 58 201 2 156z"/>
<path d="M1391 2681 c-12 -12 -21 -32 -21 -46 0 -33 33 -98 76 -152 19 -23 34
-47 34 -55 0 -39 185 -367 274 -485 l51 -68 65 -8 c36 -4 75 -5 88 -2 20 5 23
10 17 33 -13 56 -353 627 -445 750 -31 41 -41 47 -77 50 -32 2 -47 -2 -62 -17z"/>
<path d="M6209 2644 c-6 -16 -27 -83 -46 -149 -42 -144 -84 -237 -120 -264
-29 -23 -79 -27 -161 -11 -87 16 -132 -15 -132 -91 0 -76 -115 -237 -268 -376
-91 -84 -152 -161 -152 -195 0 -41 93 -14 209 61 91 58 141 52 141 -19 0 -11
7 -23 15 -26 33 -13 73 11 159 99 253 256 410 614 394 897 -5 91 -21 120 -39
74z m-199 -581 c0 -12 -223 -353 -231 -353 -5 0 -11 15 -15 34 -11 60 33 137
137 238 81 80 109 100 109 81z"/>
<path d="M8387 2618 c-95 -117 -234 -380 -244 -459 l-5 -44 39 45 c53 63 85
91 97 87 5 -2 15 -33 21 -70 12 -75 19 -87 33 -60 32 60 120 543 99 543 -3 0
-21 -19 -40 -42z"/>
<path d="M1690 2597 c0 -61 42 -141 84 -161 65 -31 103 10 72 76 -29 59 -103
128 -137 128 -16 0 -19 -8 -19 -43z"/>
<path d="M3221 2621 c-39 -39 -40 -156 -3 -194 18 -17 23 -18 55 -6 56 20 100
1 197 -87 46 -42 102 -85 123 -95 51 -27 97 -22 116 12 35 63 -34 162 -191
275 -154 111 -250 142 -297 95z"/>
<path d="M1905 2291 c-12 -38 51 -160 141 -271 115 -143 235 -256 394 -373
177 -130 200 -149 220 -182 23 -37 26 -73 6 -81 -41 -16 -181 67 -386 230
-131 104 -235 171 -275 178 -33 5 -29 -30 10 -80 58 -75 163 -164 435 -368
140 -105 293 -223 340 -263 50 -42 122 -90 176 -117 84 -43 98 -46 202 -55 62
-5 128 -15 148 -24 20 -8 66 -45 103 -82 36 -38 87 -79 112 -92 42 -22 49 -23
78 -12 70 29 44 110 -70 214 -92 86 -190 142 -440 253 -240 107 -321 151 -317
174 9 49 179 -3 447 -136 290 -144 443 -251 505 -352 52 -85 136 -130 261
-139 134 -10 202 27 216 117 13 82 50 101 159 82 98 -17 170 -41 170 -56 0 -8
-39 -35 -87 -61 -103 -56 -99 -53 -87 -65 7 -7 51 -5 129 5 154 19 238 19 304
-1 53 -15 59 -21 124 -124 66 -103 161 -56 248 124 40 83 51 155 29 196 -14
26 -77 63 -96 56 -13 -5 -12 -11 6 -45 34 -68 20 -128 -39 -170 -51 -37 -139
-23 -158 24 -8 23 -131 109 -211 149 -204 102 -381 145 -792 191 -347 38 -383
47 -508 126 -37 23 -178 100 -313 170 -136 70 -284 150 -329 179 -195 120
-389 286 -534 456 -170 199 -300 290 -321 225z"/>
<path d="M6854 2211 c-63 -39 -105 -149 -69 -184 24 -24 39 -21 80 15 61 53
88 124 65 169 -13 24 -36 24 -76 0z"/>
<path d="M4382 2138 c-7 -7 -12 -18 -12 -25 0 -76 158 -169 200 -118 38 46
-60 155 -140 155 -20 0 -41 -5 -48 -12z"/>
<path d="M5532 2123 c-104 -54 -334 -241 -378 -308 -23 -35 -3 -59 42 -52 95
16 275 112 360 192 58 55 84 118 67 165 -12 34 -29 35 -91 3z"/>
<path d="M8134 1840 c-54 -27 -166 -123 -235 -202 -122 -139 -169 -217 -169
-278 0 -23 -7 -35 -32 -50 -18 -11 -45 -20 -61 -20 -68 0 -195 -93 -256 -188
-37 -58 -38 -62 -7 -62 48 0 161 69 266 163 171 152 456 474 527 594 32 56 22
70 -33 43z"/>
<path d="M3093 1733 c-51 -20 43 -155 135 -195 96 -43 173 29 105 97 -53 53
-202 114 -240 98z"/>
<path d="M5000 1494 c-190 -15 -624 -75 -705 -99 -101 -29 -117 -62 -66 -133
39 -53 81 -67 178 -58 104 10 243 48 413 113 219 84 341 149 312 167 -14 8
-83 14 -132 10z"/>
<path d="M6675 1481 c-114 -41 -250 -136 -279 -194 -32 -66 -236 -226 -533
-416 -179 -115 -308 -186 -375 -206 -75 -24 -142 -60 -226 -122 -71 -53 -136
-126 -129 -147 2 -6 18 -12 36 -14 43 -4 114 38 147 87 32 48 63 65 106 57
122 -23 186 -16 307 33 82 34 152 81 411 275 107 81 218 157 246 171 110 52
421 426 400 480 -7 20 -50 18 -111 -4z"/>
<path d="M3527 1479 c-50 -20 -49 -85 4 -137 34 -33 170 -82 283 -102 134 -23
236 -5 236 42 0 51 -149 147 -285 183 -76 21 -202 28 -238 14z"/>
<path d="M2176 1282 c-14 -13 -3 -52 40 -140 36 -75 61 -110 122 -171 l77 -78
170 -57 c94 -31 189 -68 213 -82 39 -23 43 -28 37 -55 -9 -39 11 -46 72 -25
55 19 115 21 146 5 12 -7 41 -31 63 -54 66 -68 156 -83 205 -34 33 33 25 64
-28 96 -27 16 -55 32 -63 35 -119 49 -335 150 -404 189 -49 28 -133 84 -185
124 -181 137 -439 274 -465 247z"/>
<path d="M4722 1155 c-85 -37 -35 -122 91 -154 60 -15 119 -1 153 36 63 68
-12 133 -150 133 -34 -1 -76 -7 -94 -15z"/>
<path d="M6621 1089 c-13 -5 -82 -69 -155 -143 -179 -182 -313 -275 -605 -421
-208 -104 -231 -119 -231 -159 0 -48 21 -70 64 -69 69 2 169 60 461 267 127
90 379 218 475 242 36 9 71 23 78 32 7 10 12 48 12 101 0 130 -31 178 -99 150z"/>
<path d="M4689 601 c-57 -58 -23 -151 56 -151 82 0 117 101 54 154 -40 34 -74
33 -110 -3z"/>
<path d="M3462 610 c-52 -22 -31 -75 46 -114 42 -21 230 -76 260 -76 8 0 12
18 12 46 0 38 -5 51 -30 74 -58 54 -228 96 -288 70z"/>
<path d="M6173 450 c-77 -17 -115 -67 -93 -120 20 -49 53 -65 99 -52 45 14
108 72 117 108 12 48 -51 80 -123 64z"/>
<path d="M4011 438 c-35 -4 -69 -12 -74 -17 -47 -47 127 -86 357 -79 101 3
149 8 169 19 23 12 26 18 15 26 -37 32 -343 65 -467 51z"/>
<path d="M4656 335 c-134 -37 -246 -123 -246 -188 0 -49 28 -71 80 -64 96 13
320 191 320 255 0 16 -89 15 -154 -3z"/>
<path d="M3828 279 c-67 -39 -19 -229 58 -229 36 0 84 47 84 83 0 41 -42 111
-84 136 -38 24 -36 24 -58 10z"/>
<path d="M5061 185 c-82 -18 -155 -42 -206 -67 -42 -21 -95 -66 -95 -80 0 -5
17 -16 37 -25 72 -29 227 4 383 82 77 39 109 70 92 87 -18 18 -138 20 -211 3z"/>
</g>
</svg>
